<svg xmlns="http://www.w3.org/2000/svg" width="14.11" height="14.109" viewBox="0 0 14.11 14.109">
  <g id="noun_Star_425525" transform="translate(0)">
    <path id="Path_1" data-name="Path 1" d="M11.18,14.109a.517.517,0,0,1-.295-.093l-3.83-2.67L3.269,14.015a.516.516,0,0,1-.6,0,.5.5,0,0,1-.185-.56L3.993,8.877.218,6.2a.5.5,0,0,1-.194-.562A.508.508,0,0,1,.51,5.291H5.127L6.572.339a.513.513,0,0,1,.965,0L8.981,5.291H13.6a.509.509,0,0,1,.487.351.5.5,0,0,1-.194.562L10.117,8.877l1.548,4.571a.5.5,0,0,1-.18.561A.514.514,0,0,1,11.18,14.109Z" transform="translate(0)" fill="#ffba00"/>
  </g>
</svg>
